<svg fill="#000000" xmlns="http://www.w3.org/2000/svg" viewBox="0 0 64 64" width="64px" height="64px"><path d="M54,48H38c-0.404,0-0.77-0.244-0.924-0.617c-0.155-0.374-0.069-0.804,0.217-1.09L41,42.586V27.192l-8.071,20.179	C32.776,47.751,32.409,48,32,48h-5c-0.422,0-0.798-0.265-0.94-0.661L19,27.73v12.967l3.832,5.748	c0.205,0.307,0.224,0.701,0.05,1.026S22.369,48,22,48H10c-0.369,0-0.708-0.203-0.882-0.528s-0.155-0.72,0.05-1.026L13,40.697V17.414	l-4-4c-0.574-0.574-0.744-1.429-0.434-2.179S9.603,10,10.414,10H22c0.39,0,0.744,0.227,0.908,0.581l9.556,20.705l8.613-20.671	C41.232,10.243,41.597,10,42,10h11.238c0.853,0,1.59,0.518,1.88,1.319s0.055,1.672-0.601,2.217L51,16.468v26.118l3.707,3.707	c0.286,0.286,0.372,0.716,0.217,1.09C54.77,47.756,54.404,48,54,48z M40.414,46h11.172l-2.293-2.293C49.105,43.52,49,43.265,49,43	V16c0-0.297,0.132-0.578,0.359-0.768L53.237,12h-10.57l-9.233,22.159c-0.152,0.366-0.507,0.607-0.904,0.615	c-0.419,0.004-0.76-0.221-0.927-0.581L21.36,12H10.414l4.293,4.293C14.895,16.48,15,16.735,15,17v24	c0,0.197-0.059,0.391-0.168,0.555L11.868,46h8.264l-2.964-4.445C17.059,41.391,17,41.197,17,41V22c0-0.486,0.35-0.901,0.828-0.985	c0.472-0.081,0.947,0.188,1.112,0.646L27.703,46h3.62l9.748-24.372c0.179-0.446,0.652-0.699,1.118-0.61	C42.66,21.109,43,21.521,43,22v21c0,0.265-0.105,0.52-0.293,0.707L40.414,46z"/><path d="M9.925,55c-0.553,0-1-0.448-1-1v-2c0-0.552,0.447-1,1-1s1,0.448,1,1v2C10.925,54.552,10.478,55,9.925,55z"/><path d="M14.83,55c-0.553,0-1-0.448-1-1v-2c0-0.552,0.447-1,1-1s1,0.448,1,1v2C15.83,54.552,15.383,55,14.83,55z"/><path d="M19.736,55c-0.553,0-1-0.448-1-1v-2c0-0.552,0.447-1,1-1s1,0.448,1,1v2C20.736,54.552,20.289,55,19.736,55z"/><path d="M24.642,55c-0.553,0-1-0.448-1-1v-2c0-0.552,0.447-1,1-1s1,0.448,1,1v2C25.642,54.552,25.194,55,24.642,55z"/><path d="M29.547,55c-0.553,0-1-0.448-1-1v-2c0-0.552,0.447-1,1-1s1,0.448,1,1v2C30.547,54.552,30.1,55,29.547,55z"/><path d="M34.453,55c-0.553,0-1-0.448-1-1v-2c0-0.552,0.447-1,1-1s1,0.448,1,1v2C35.453,54.552,35.006,55,34.453,55z"/><path d="M39.358,55c-0.553,0-1-0.448-1-1v-2c0-0.552,0.447-1,1-1s1,0.448,1,1v2C40.358,54.552,39.911,55,39.358,55z"/><path d="M44.264,55c-0.553,0-1-0.448-1-1v-2c0-0.552,0.447-1,1-1s1,0.448,1,1v2C45.264,54.552,44.816,55,44.264,55z"/><path d="M49.17,55c-0.553,0-1-0.448-1-1v-2c0-0.552,0.447-1,1-1s1,0.448,1,1v2C50.17,54.552,49.723,55,49.17,55z"/><path d="M54.075,55c-0.553,0-1-0.448-1-1v-2c0-0.552,0.447-1,1-1s1,0.448,1,1v2C55.075,54.552,54.628,55,54.075,55z"/></svg>