<?xml version="1.0" encoding="utf-8"?><svg version="1.1" id="Layer_1" xmlns="http://www.w3.org/2000/svg" xmlns:xlink="http://www.w3.org/1999/xlink" x="0px" y="0px" viewBox="0 0 92.26 122.88" style="enable-background:new 0 0 92.26 122.88" xml:space="preserve"><style type="text/css">.st0{fill-rule:evenodd;clip-rule:evenodd;}</style><g><path class="st0" style="fill:#1c75d9" d="M68.17,42.9v23.87h-5.58v-3.69H29.68v3.69l-5.58,0V42.9h-1.92v-3.67h4.69l2.62-8.14 c0.77-2.4,2.06-4.58,4.58-4.58h25.11c2.52,0,3.97,2.14,4.58,4.58l2.02,8.14h4.31v3.67H68.17L68.17,42.9L68.17,42.9z M47.49,116.85 c6.31-4.01,11.98-8.87,16.92-14.29c10.73-11.75,17.97-26.11,20.87-40.2c2.88-13.91,1.52-27.54-4.85-38.06 c-1.81-3.02-4.08-5.78-6.78-8.26c-7.74-7.05-16.6-10.41-25.52-10.5c-9.37-0.07-18.87,3.45-27.27,10.14 c-3.58,2.86-6.53,6.15-8.82,9.78c-5.9,9.28-7.69,20.8-5.74,32.85c1.97,12.23,7.78,25.02,17.04,36.61 c6.44,8.08,14.54,15.58,24.18,21.91L47.49,116.85L47.49,116.85z M68.52,106.27c-5.6,6.12-12.09,11.61-19.42,16.06 c-0.88,0.66-2.13,0.75-3.13,0.11c-10.8-6.87-19.85-15.13-26.99-24.09C9.15,86.02,2.94,72.34,0.83,59.16 c-2.15-13.36-0.14-26.2,6.51-36.68c2.63-4.13,5.97-7.89,10.07-11.14C26.78,3.88,37.51-0.07,48.17,0 c10.28,0.09,20.42,3.9,29.22,11.93c3.08,2.81,5.67,5.99,7.78,9.48c7.15,11.77,8.69,26.81,5.56,42.01 c-3.11,15.04-10.8,30.33-22.18,42.8L68.52,106.27L68.52,106.27z M37.77,55.72h16.48v3.89H37.77V55.72L37.77,55.72L37.77,55.72z M25.97,46.66c4.2,0.13,6.77,1.89,7.43,5.56h-7.43V46.66L25.97,46.66z M65.77,46.66c-4.2,0.13-6.77,1.89-7.43,5.56h7.43V46.66 L65.77,46.66z M28.87,39.23h34.52l-1.48-6.83c-0.41-1.87-1.57-3.49-3.49-3.49H34.55c-1.92,0-2.9,1.66-3.49,3.49L28.87,39.23 L28.87,39.23L28.87,39.23z"/></g></svg>